# xmcd
# 
# Track frame offsets:
#     150
#     16980
#     33651
#     64834
#     75922
#     90585
#     108706
#     127460
#     146377
#     160757
#     177367
#     195844
#     210975
#     229420
#     246975
#     263842
#     293215
# 
# Disc length: 4440
# 
# Revision: 1
# Processed by: cddbd v1.5.2PL0 Copyright (c) Steve Scherf et al.
# Submitted via: fre:ac v1.0.31
# 
DISCID=ee115611
DTITLE=Erste Allgemeine Verunsicherung - Platinum Kolläktschn 3
DYEAR=0
DGENRE=Country
TTITLE0=Tu felix Austria
TTITLE1=Ba-Ba Bankrobbery
TTITLE2=Hi Medley
TTITLE3=Wir Schwyzer
TTITLE4=Es wird Heller
TTITLE5=Pustel Gunkel
TTITLE6=Es steht ein Haus in Ostberlin
TTITLE7=Helden
TTITLE8=Erzherzog Jörgerl
TTITLE9=Liebelei
TTITLE10=Die Intellektuellen
TTITLE11=Disco Dillo
TTITLE12=Die Braut und der Matrose
TTITLE13=Alpenrap
TTITLE14=Ba-Ba Ballamann
TTITLE15=Ping Pong
TTITLE16=B
EXTD=
EXTT0=
EXTT1=
EXTT2=
EXTT3=
EXTT4=
EXTT5=
EXTT6=
EXTT7=
EXTT8=
EXTT9=
EXTT10=
EXTT11=
EXTT12=
EXTT13=
EXTT14=
EXTT15=
EXTT16=
PLAYORDER=
